<mxfile host="app.diagrams.net" modified="2024-04-26T22:15:31.749Z" agent="Mozilla/5.0 (Macintosh; Intel Mac OS X 10.15; rv:125.0) Gecko/20100101 Firefox/125.0" etag="CNctYmsQerJPOkozIVD_" version="24.3.0" type="github">
  <diagram id="prtHgNgQTEPvFCAcTncT" name="Page-1">
    <mxGraphModel dx="892" dy="530" grid="1" gridSize="10" guides="1" tooltips="1" connect="1" arrows="1" fold="1" page="1" pageScale="1" pageWidth="827" pageHeight="1169" math="0" shadow="0">
      <root>
        <mxCell id="0" />
        <mxCell id="1" parent="0" />
        <mxCell id="F-flTXnrQriJVrCHD6o5-17" style="edgeStyle=orthogonalEdgeStyle;rounded=0;orthogonalLoop=1;jettySize=auto;html=1;entryX=0;entryY=0.25;entryDx=0;entryDy=0;" edge="1" parent="1" source="F-flTXnrQriJVrCHD6o5-1" target="F-flTXnrQriJVrCHD6o5-2">
          <mxGeometry relative="1" as="geometry">
            <Array as="points">
              <mxPoint x="160" y="85" />
              <mxPoint x="160" y="163" />
              <mxPoint x="360" y="163" />
            </Array>
          </mxGeometry>
        </mxCell>
        <mxCell id="F-flTXnrQriJVrCHD6o5-18" value="2) Resource IDs" style="edgeLabel;html=1;align=center;verticalAlign=middle;resizable=0;points=[];" vertex="1" connectable="0" parent="F-flTXnrQriJVrCHD6o5-17">
          <mxGeometry x="0.3405" y="-2" relative="1" as="geometry">
            <mxPoint x="-4" y="-2" as="offset" />
          </mxGeometry>
        </mxCell>
        <mxCell id="F-flTXnrQriJVrCHD6o5-1" value="Elasticsearch&#xa;Cluster&#xa;" style="shape=image;verticalLabelPosition=bottom;labelBackgroundColor=default;verticalAlign=top;aspect=fixed;imageAspect=0;image=data:image/svg+xml,PHN2ZyB4bWw6c3BhY2U9InByZXNlcnZlIiBzdHlsZT0iZW5hYmxlLWJhY2tncm91bmQ6bmV3IDAgMCA3MS45IDgwIiB2aWV3Qm94PSIwIDAgNzEuOSA4MCIgeG1sbnM9Imh0dHA6Ly93d3cudzMub3JnLzIwMDAvc3ZnIj4mI3hhOyAgICA8cGF0aCBzdHlsZT0iZmlsbDojMjliNmY2IiBkPSJNNjQgNDBjMC02LjYtNS40LTEyLTEyLTEySDEuOEMuNiAzMS44IDAgMzUuOCAwIDQwcy42IDguMiAxLjggMTJINTJjNi42IDAgMTItNS40IDEyLTEyeiIvPiYjeGE7ICAgIDxwYXRoIHN0eWxlPSJmaWxsOiM0ZGI2YWMiIGQ9Ik00MCA4MGMxMyAwIDI0LjYtNi4zIDMxLjktMTUuOUM2Ny43IDYwLjMgNjIuMSA1OCA1NiA1OEg0LjNDMTAuOSA3MSAyNC40IDgwIDQwIDgweiIvPiYjeGE7ICAgIDxwYXRoIHN0eWxlPSJmaWxsOiNmZmNhMjgiIGQ9Ik00MCAwQzI0LjQgMCAxMC45IDkgNC4zIDIySDU2YzYuMSAwIDExLjctMi4zIDE1LjktNkM2NC42IDYuMyA1MyAwIDQwIDB6Ii8+JiN4YTsgICAgPHBhdGggc3R5bGU9ImZpbGw6I2Y5YTgyNSIgZD0iTTM0LjEgMjJjLTMtNi43LTcuNy0xMi42LTEzLjUtMTctNyAzLjktMTIuNyA5LjgtMTYuNCAxN2gyOS45eiIvPiYjeGE7ICAgIDxwYXRoIHN0eWxlPSJmaWxsOiMwMDk2ODgiIGQ9Ik0yMC43IDc1YzUuOC00LjQgMTAuNS0xMC4zIDEzLjUtMTdINC4zYzMuNiA3LjIgOS4zIDEzLjEgMTYuNCAxN3oiLz4mI3hhOyAgICA8cGF0aCBzdHlsZT0iZmlsbDojMjEyMTIxIiBkPSJNMS45IDI4Qy43IDMxLjggMCAzNS44IDAgNDBzLjcgOC4yIDEuOSAxMmgzNC41YzEuMS0zLjggMS43LTcuOCAxLjctMTJzLS42LTguMi0xLjctMTJIMS45eiIvPiYjeGE7PC9zdmc+;" vertex="1" parent="1">
          <mxGeometry x="220" y="60" width="45" height="50" as="geometry" />
        </mxCell>
        <mxCell id="F-flTXnrQriJVrCHD6o5-13" style="edgeStyle=orthogonalEdgeStyle;rounded=0;orthogonalLoop=1;jettySize=auto;html=1;entryX=1;entryY=0.5;entryDx=0;entryDy=0;" edge="1" parent="1" source="F-flTXnrQriJVrCHD6o5-2" target="F-flTXnrQriJVrCHD6o5-1">
          <mxGeometry relative="1" as="geometry">
            <Array as="points">
              <mxPoint x="380" y="85" />
            </Array>
          </mxGeometry>
        </mxCell>
        <mxCell id="F-flTXnrQriJVrCHD6o5-14" value="&lt;div&gt;1) Search&lt;/div&gt;&lt;div&gt;Query&lt;br&gt;&lt;/div&gt;" style="edgeLabel;html=1;align=center;verticalAlign=middle;resizable=0;points=[];" vertex="1" connectable="0" parent="F-flTXnrQriJVrCHD6o5-13">
          <mxGeometry x="0.125" y="4" relative="1" as="geometry">
            <mxPoint x="-24" y="-4" as="offset" />
          </mxGeometry>
        </mxCell>
        <mxCell id="F-flTXnrQriJVrCHD6o5-20" style="edgeStyle=orthogonalEdgeStyle;rounded=0;orthogonalLoop=1;jettySize=auto;html=1;entryX=0.5;entryY=0;entryDx=0;entryDy=0;exitX=0;exitY=0.5;exitDx=0;exitDy=0;" edge="1" parent="1" source="F-flTXnrQriJVrCHD6o5-2" target="F-flTXnrQriJVrCHD6o5-19">
          <mxGeometry relative="1" as="geometry">
            <Array as="points">
              <mxPoint x="245" y="175" />
            </Array>
          </mxGeometry>
        </mxCell>
        <mxCell id="F-flTXnrQriJVrCHD6o5-21" value="3) Query by IDs" style="edgeLabel;html=1;align=center;verticalAlign=middle;resizable=0;points=[];" vertex="1" connectable="0" parent="F-flTXnrQriJVrCHD6o5-20">
          <mxGeometry x="0.6606" y="-1" relative="1" as="geometry">
            <mxPoint x="1" y="-10" as="offset" />
          </mxGeometry>
        </mxCell>
        <mxCell id="F-flTXnrQriJVrCHD6o5-7" style="edgeStyle=orthogonalEdgeStyle;rounded=0;orthogonalLoop=1;jettySize=auto;html=1;entryX=1;entryY=0.25;entryDx=0;entryDy=0;exitX=0;exitY=0.25;exitDx=0;exitDy=0;" edge="1" parent="1" source="F-flTXnrQriJVrCHD6o5-3" target="F-flTXnrQriJVrCHD6o5-2">
          <mxGeometry relative="1" as="geometry" />
        </mxCell>
        <mxCell id="F-flTXnrQriJVrCHD6o5-33" style="edgeStyle=orthogonalEdgeStyle;rounded=0;orthogonalLoop=1;jettySize=auto;html=1;exitX=1;exitY=0.25;exitDx=0;exitDy=0;entryX=1;entryY=0.25;entryDx=0;entryDy=0;" edge="1" parent="1" target="F-flTXnrQriJVrCHD6o5-3">
          <mxGeometry relative="1" as="geometry">
            <mxPoint x="622.5555555555554" y="162" as="sourcePoint" />
          </mxGeometry>
        </mxCell>
        <mxCell id="F-flTXnrQriJVrCHD6o5-35" value="Search Query" style="edgeLabel;html=1;align=center;verticalAlign=middle;resizable=0;points=[];" vertex="1" connectable="0" parent="F-flTXnrQriJVrCHD6o5-33">
          <mxGeometry x="-0.3215" relative="1" as="geometry">
            <mxPoint x="-14" as="offset" />
          </mxGeometry>
        </mxCell>
        <mxCell id="F-flTXnrQriJVrCHD6o5-34" style="edgeStyle=orthogonalEdgeStyle;rounded=0;orthogonalLoop=1;jettySize=auto;html=1;" edge="1" parent="1" source="F-flTXnrQriJVrCHD6o5-3" target="F-flTXnrQriJVrCHD6o5-5">
          <mxGeometry relative="1" as="geometry" />
        </mxCell>
        <mxCell id="F-flTXnrQriJVrCHD6o5-36" value="Resources" style="edgeLabel;html=1;align=center;verticalAlign=middle;resizable=0;points=[];" vertex="1" connectable="0" parent="F-flTXnrQriJVrCHD6o5-34">
          <mxGeometry x="-0.0559" y="-3" relative="1" as="geometry">
            <mxPoint x="5" y="-1" as="offset" />
          </mxGeometry>
        </mxCell>
        <mxCell id="F-flTXnrQriJVrCHD6o5-3" value="REST API" style="shape=image;verticalLabelPosition=bottom;labelBackgroundColor=default;verticalAlign=top;aspect=fixed;imageAspect=0;image=data:image/svg+xml,PHN2ZyB4bWw6c3BhY2U9InByZXNlcnZlIiBzdHlsZT0iZW5hYmxlLWJhY2tncm91bmQ6bmV3IDAgMCA3OCA3Ny45OyIgdmlld0JveD0iMCAwIDc4IDc3LjkiIHk9IjBweCIgeD0iMHB4IiB4bWxuczp4bGluaz0iaHR0cDovL3d3dy53My5vcmcvMTk5OS94bGluayIgeG1sbnM9Imh0dHA6Ly93d3cudzMub3JnLzIwMDAvc3ZnIiBpZD0iTGF5ZXJfMSIgdmVyc2lvbj0iMS4xIj4mI3hhOzxzdHlsZSB0eXBlPSJ0ZXh0L2NzcyI+JiN4YTsJLnN0MHtmaWxsOiM2REIzM0Y7fSYjeGE7PC9zdHlsZT4mI3hhOzxnIGlkPSJMYXllcl8yXzAwMDAwMTc5NjA4NTk0NDIwMzc2NTA1NzgwMDAwMDAyMzY0NzA4MDYzMDkwMzUyMDQ3XyI+JiN4YTsJPGcgaWQ9ImxvZ29zIj4mI3hhOwkJPHBhdGggZD0iTTcxLDQuNmMtMS4xLDIuNi0yLjUsNS4xLTQuMiw3LjNDNTEuOS0zLjYsMjcuMy00LDExLjksMTAuOXMtMTUuOSwzOS41LTAuOSw1NWMwLjUsMC41LDEsMS4xLDEuNiwxLjYmI3hBOyYjOTsmIzk7JiM5O2wxLjQsMS4zYzE2LjQsMTMuOCw0MC45LDExLjcsNTQuNy00LjdjNS4zLTYuMyw4LjUtMTQuMSw5LjEtMjIuM0M3OC45LDMyLDc1LjksMTkuNSw3MSw0LjZ6IE0xOC4xLDY3LjhjLTEuMiwxLjQtMy4yLDEuNi00LjcsMC41JiN4QTsmIzk7JiM5OyYjOTtjLTEuNC0xLjItMS42LTMuMi0wLjUtNC43YzEuMi0xLjQsMy4yLTEuNiw0LjYtMC41QzE5LDY0LjMsMTkuMyw2Ni40LDE4LjEsNjcuOHogTTcwLjgsNTYuMmMtOS41LDEyLjgtMzAuMSw4LjQtNDMuMiw5LjEmI3hBOyYjOTsmIzk7JiM5O2MwLDAtMi4zLDAuMi00LjcsMC41YzAsMCwwLjktMC40LDItMC44YzkuMi0zLjIsMTMuNi0zLjksMTkuMi02LjdjMTAuNS01LjQsMjEtMTcuMiwyMy4xLTI5LjRDNjMuMiw0MC41LDUxLDUwLjYsNDAsNTQuNyYjeEE7JiM5OyYjOTsmIzk7Yy03LjYsMi44LTIxLjMsNS41LTIxLjMsNS41bC0wLjYtMC4zYy05LjMtNC42LTkuNi0yNC44LDcuNC0zMS4zYzcuNS0yLjksMTQuNS0xLjMsMjIuNi0zLjJjOC42LTIsMTguNS04LjQsMjIuNS0xNi45JiN4QTsmIzk7JiM5OyYjOTtDNzUuMSwyMi4xLDgwLjYsNDMuMiw3MC44LDU2LjJ6IiBjbGFzcz0ic3QwIi8+JiN4YTsJPC9nPiYjeGE7PC9nPiYjeGE7PC9zdmc+;" vertex="1" parent="1">
          <mxGeometry x="460" y="150" width="50" height="50" as="geometry" />
        </mxCell>
        <mxCell id="F-flTXnrQriJVrCHD6o5-5" value="User" style="outlineConnect=0;fontColor=#232F3E;gradientColor=none;fillColor=#232F3E;strokeColor=none;dashed=0;verticalLabelPosition=bottom;verticalAlign=top;align=center;html=1;fontSize=12;fontStyle=0;aspect=fixed;pointerEvents=1;shape=mxgraph.aws4.user;labelBackgroundColor=none;fillStyle=solid;" vertex="1" parent="1">
          <mxGeometry x="619.9999999999998" y="150" width="50" height="50" as="geometry" />
        </mxCell>
        <mxCell id="F-flTXnrQriJVrCHD6o5-22" style="edgeStyle=orthogonalEdgeStyle;rounded=0;orthogonalLoop=1;jettySize=auto;html=1;" edge="1" parent="1" source="F-flTXnrQriJVrCHD6o5-19" target="F-flTXnrQriJVrCHD6o5-2">
          <mxGeometry relative="1" as="geometry" />
        </mxCell>
        <mxCell id="F-flTXnrQriJVrCHD6o5-23" value="4) Resources" style="edgeLabel;html=1;align=center;verticalAlign=middle;resizable=0;points=[];" vertex="1" connectable="0" parent="F-flTXnrQriJVrCHD6o5-22">
          <mxGeometry x="-0.5531" relative="1" as="geometry">
            <mxPoint x="10" as="offset" />
          </mxGeometry>
        </mxCell>
        <mxCell id="F-flTXnrQriJVrCHD6o5-19" value="SQL Database" style="shape=image;verticalLabelPosition=bottom;labelBackgroundColor=default;verticalAlign=top;aspect=fixed;imageAspect=0;image=data:image/svg+xml,PHN2ZyBoZWlnaHQ9IjI1NiIgd2lkdGg9IjI1NiIgdmVyc2lvbj0iMS4xIiBpZD0ic3ZnMiIgeG1sbnM9Imh0dHA6Ly93d3cudzMub3JnLzIwMDAvc3ZnIiB2aWV3Qm94PSIwIDAgMjU2IDI1NiI+JiN4YTsgIDxtZXRhZGF0YSBpZD0ibWV0YWRhdGE4Ij4mI3hhOyAgICAmI3hhOyAgICAgICYjeGE7ICAgICAgICBpbWFnZS9zdmcreG1sJiN4YTsgICAgICAgICYjeGE7ICAgICAgICAmI3hhOyAgICAgICYjeGE7ICAgICYjeGE7ICA8L21ldGFkYXRhPiYjeGE7ICA8ZGVmcyBpZD0iZGVmczYiLz4mI3hhOyAgJiN4YTsgIDxwYXRoIHN0eWxlPSJmaWxsOiMwMDdhYzM7ZmlsbC1vcGFjaXR5OjEiIGQ9Im0gOTguMzMwNTAzLDI0Ny42Nzc1OCBjIC0xMi43OTgwMSwtMS44MDAyOCAtMjcuMDk2NDksLTUuMDczMDcgLTM2LC04LjI0MDA2IC0xOC42MjY0MywtNi42MjU0NCAtMzMuODk4MzksLTE3LjQwNjI3IC0zOC45MTMyNCwtMjcuNDY5NzYgLTIuNDkxMTEsLTQuOTk5MDEgLTIuNTg2NzYsLTUuODQ5MyAtMi41ODY3NiwtMjIuOTk0NjEgMCwtOS45NTYyIDAuMzk4OSwtMTcuODAzNjYgMC45MDQ5OCwtMTcuODAzNjYgMC40OTc3NCwwIDIuMDY2MDEsMS45ODExNiAzLjQ4NTA2LDQuNDAyNTggMTMuMTA2MjQsMjIuMzY0MTEgNTkuNzM2MTgsMzcuMjI1MzcgMTEwLjYwOTk1NywzNS4yNTIwOSA0Ny4wNzY2MywtMS44MjU5OSA4NC40MDM0NiwtMTUuOTkyOTQgOTQuNjAxMDMsLTM1LjkwNDY3IDEuMzM3OTYsLTIuNjEyNSAyLjg1NDY5LC00Ljc1IDMuMzcwNSwtNC43NSAxLjY5OTgsMCAyLjI3ODk1LDYuOTA4NSAxLjgyODE4LDIxLjgwNzY4IC0wLjQwMzIyLDEzLjMyNzYzIC0wLjY4MzExLDE1LjE1NjkzIC0zLjAxMzMxLDE5LjY5NDM2IC04LjEzMjYzLDE1LjgzNjEzIC0zMS41NDcxNSwyOC4wODA3NCAtNjYuMjIwNTMsMzQuNjMwMDIgLTE0LjUwODQ2LDIuNzQwNDIgLTUyLjg1NTQ5LDMuNTE1NjUgLTY4LjA2NTg2NywxLjM3NjAzIHogbSA1LjQ5OTk5NywtNDguNjI3NzcgYyAtMzAuODg3Njk3LC0zLjEwMzAzIC01OS41MDQ5MDcsLTEzLjY0MTQ5IC03Mi45OTM1ODcsLTI2Ljg4MDMyIC04Ljg5OTc0LC04LjczNDkgLTkuNDUzNDMsLTEwLjQ5NyAtOS44MTk1MywtMzEuMjUgLTAuMjEwNTUsLTExLjkzNTA3IDAuMDMxLC0xNy43NSAwLjczNzQ1LC0xNy43NSAwLjU3NzgyLDAgMi4xNzA0NiwxLjc3NCAzLjUzOTIsMy45NDIyMiA4LjY4NzU4LDEzLjc2MjAzIDMxLjMzNTY0LDI1LjI4MDk4IDYwLjkzNjc3LDMwLjk5Mjg2IDU5LjAxODY3NywxMS4zODgzMyAxMjguMDc4MTc3LC0zLjc3ODQ2IDE0My43NjQ3MDcsLTMxLjU3MzQ3IDEuNjY0MjUsLTIuOTQ4ODkgMy40MDUzOCwtNS4zNjE2MSAzLjg2OTE4LC01LjM2MTYxIDEuNTIyNjcsMCAyLjIyODE2LDguOTU3MTcgMS43Njk4NSwyMi40NzA2MiAtMC40MDQyMiwxMS45MTg2OCAtMC43MzA3OCwxMy44NTkzNSAtMy4xNzE1NywxOC44NDgxNCAtMTIuNTg2NjgsMjUuNzI2MjUgLTcxLjA1NzY3LDQyLjM0NTYyIC0xMjguNjMyNDcsMzYuNTYxNTYgeiBtIDMsLTQ4Ljk5NDYyIGMgLTM5LjYyNjI1NywtMy41MDA3IC03My4zNDc3MzcsLTE4LjI3MjQ2IC04Mi43ODEzMDcsLTM2LjI2MjUxIC0yLjUyMjkyLC00LjgxMTI4IC0yLjcwNzk2LC02LjA3ODA1IC0zLjAzOTI2LC0yMC44MDcwOTggLTAuNDMxMTgsLTE5LjE2OTUzIDAuMjExMzIsLTIwLjk5ODk5IDQuODQwOTcsLTEzLjc4NDMgOC40MjAyMywxMy4xMjE4IDI4LjIyMzA1LDIzLjIwNjY0OCA1Ni44OTg5MiwyOC45NzY1NTggNjIuOTE5OTE3LDEyLjY2MDE5IDEzMy4zMDQ5NjcsLTIuODY4MjkgMTQ4LjQ4MTgyNywtMzIuNzU4MzQ4IDAuOTA3NjIsLTEuNzg3NSAyLjAxODY2LC0zLjI1IDIuNDY4OTgsLTMuMjUgMS4yNzIzMiwwIDIuMTkwODUsMjYuOTgxMTEgMS4xMzg2MiwzMy40NDYyMTggLTQuNzgxODYsMjkuMzgwODkgLTY0LjM1NjI3LDUwLjA2MjczIC0xMjguMDA4NzUsNDQuNDM5NDggeiBtIDQuODkzNDksLTQ4Ljk4NzgyIEMgNzAuNDk3MTMzLDk4LjQ0NjE1MiAzMi44OTY4MDMsODIuMzkxODMyIDI0LjE4OTAwMyw2My42OTIyOTIgMTIuMjU3NTIzLDM4LjA3MDA2MiA0OC4yODU3OTMsMTMuMDUyNzYyIDEwNS43MTE1NSw3LjA4NDcwMTcgYyAxNi4xNjMzMSwtMS42Nzk4IDQ3LjQ5NDI1LC0wLjY3NjYxIDYxLjY4NDgyLDEuOTc1MSAxNi42NjU3NCwzLjExNDIyMDMgMjcuNzM5MzcsNi42MDIyNTAzIDQwLjE2MjUsMTIuNjUwNTcwMyAxOC4yMDMxMSw4Ljg2MjM3IDI3LjI3MTYzLDE5LjQzOTM4IDI3LjI3MTYzLDMxLjgwODA5IDAsMjkuNDkzNTYgLTU3LjUzOTM5LDUxLjcxNzY4OCAtMTIzLjEwNjUxLDQ3LjU0ODkwOCB6IiBpZD0icGF0aDMwMjYiLz4mI3hhOzwvc3ZnPg==;" vertex="1" parent="1">
          <mxGeometry x="220" y="240" width="50" height="50" as="geometry" />
        </mxCell>
        <mxCell id="F-flTXnrQriJVrCHD6o5-27" style="edgeStyle=orthogonalEdgeStyle;rounded=0;orthogonalLoop=1;jettySize=auto;html=1;exitX=1;exitY=0.5;exitDx=0;exitDy=0;entryX=0;entryY=0.5;entryDx=0;entryDy=0;" edge="1" parent="1" source="F-flTXnrQriJVrCHD6o5-2" target="F-flTXnrQriJVrCHD6o5-3">
          <mxGeometry relative="1" as="geometry" />
        </mxCell>
        <mxCell id="F-flTXnrQriJVrCHD6o5-2" value="Hibernate Search&#xa;(library)&#xa;" style="shape=image;verticalLabelPosition=bottom;labelBackgroundColor=default;verticalAlign=top;aspect=fixed;imageAspect=0;image=data:image/svg+xml,PHN2ZyBwcmVzZXJ2ZUFzcGVjdFJhdGlvPSJ4TWlkWU1pZCIgeG1sbnM6eGxpbms9Imh0dHA6Ly93d3cudzMub3JnLzE5OTkveGxpbmsiIHhtbG5zPSJodHRwOi8vd3d3LnczLm9yZy8yMDAwL3N2ZyIgdmVyc2lvbj0iMS4xIiB2aWV3Qm94PSIwIDAgMjU2IDI2NyIgaGVpZ2h0PSIyNjdweCIgd2lkdGg9IjI1NnB4Ij4mI3hhOwk8Zz4mI3hhOwkJPHBhdGggZmlsbD0iIzU5NjY2QyIgZD0iTTE1My42NzE0LDE3OC45MzMyIEwxNTIuNzM5NCwxODEuNjkwMiBMMjAxLjg3NjQsMjY1LjAzMjIgTDIwNC42NTc0LDI2Ny4wMDAyIEwyNTUuOTk5NCwxNzguMjIwMiBMMjA0LjY1NzQsODkuMDgzMiBMMTUzLjY3MTQsMTc4LjkzMzIgWiIvPiYjeGE7CQk8cGF0aCBmaWxsPSIjNTk2NjZDIiBkPSJNNTAuMjczMSwwLjMwMzkgTDAuMDAwMSw4OS4wODM5IEw1Mi4yMzQxLDE3OC45MzI5IEwxMDEuOTcyMSw4OS4wODM5IEwxMDEuODM4MSw4NS40NTI5IEw1Mi41NjUxLDIuMTA5OSBMNTAuMjczMSwwLjMwMzkgWiIvPiYjeGE7CQk8cGF0aCBmaWxsPSIjQkNBRTc5IiBkPSJNNTAuMjczMSwwLjMwMzkgTDEwMS45NzIxLDg5LjA4MzkgTDIwNC42NTcxLDg5LjA4MzkgTDE1Mi42MDExLDAuMzAzOSBMNTAuMjczMSwwLjMwMzkgWiIvPiYjeGE7CQk8cGF0aCBmaWxsPSIjQkNBRTc5IiBkPSJNNTIuMjM0MiwxNzguOTMzMiBMMTAyLjg2NDIsMjY3LjAwMDIgTDIwNC42NTcyLDI2Ny4wMDAyIEwxNTMuNjcxMiwxNzguOTMzMiBMNTIuMjM0MiwxNzguOTMzMiBaIi8+JiN4YTsJPC9nPiYjeGE7PC9zdmc+;" vertex="1" parent="1">
          <mxGeometry x="360" y="150" width="47.94" height="50" as="geometry" />
        </mxCell>
      </root>
    </mxGraphModel>
  </diagram>
</mxfile>
